# Blender v2.78 (sub 0) OBJ File: ''
# www.blender.org
mtllib sword.mtl
o Cube.003
v -0.168751 -0.569603 0.137932
v -0.321709 0.960559 0.793504
v -0.168751 -0.569603 -0.159846
v -0.321709 0.960559 -0.720983
v 0.186392 -0.569603 0.137932
v 0.320439 0.960559 0.793504
v 0.186392 -0.569603 -0.159846
v 0.320439 0.960559 -0.720983
v 0.008821 -0.569603 -0.187027
v -0.007861 0.960559 -0.776899
v 0.008821 -0.569603 0.180909
v -0.000635 0.960559 0.871214
v -0.215640 -0.569603 -0.010957
v -0.393445 0.960559 -0.000899
v 0.243008 -0.569603 -0.010957
v 0.412340 0.960559 -0.000899
v 0.008821 -0.569603 -0.010957
v -0.393445 1.195408 -0.000899
v -0.321709 1.195408 -0.720983
v -0.007861 1.195408 -0.776899
v 0.320439 1.195408 -0.720983
v 0.412340 1.195408 -0.000899
v 0.320439 1.195408 0.793504
v -0.000635 1.195408 0.871214
v -0.321709 1.195408 0.793504
v -0.240192 0.882678 0.201394
v -0.240192 0.882678 -0.201394
v 0.240192 0.882678 -0.201394
v 0.240192 0.882678 0.201394
v 0.000000 0.882678 0.259528
v 0.000000 0.882678 -0.238161
v 0.309402 0.882678 0.000000
v -0.294430 0.882678 0.000000
v -0.350480 1.301241 -0.000899
v -0.321709 1.301241 -0.270111
v 0.005236 1.301241 -0.319077
v 0.320439 1.301241 -0.270111
v 0.356136 1.301241 -0.000899
v 0.320439 1.301241 0.268312
v -0.000635 1.301241 0.346022
v -0.321709 1.301241 0.268312
v 0.152676 0.960559 -0.752326
v 0.097606 -0.569603 0.159421
v 0.097606 -0.569603 -0.173436
v 0.159902 0.960559 0.832359
v 0.125914 -0.569603 -0.010957
v 0.152676 1.195408 -0.752326
v 0.159902 1.195408 0.832359
v 0.120096 0.882678 0.230461
v 0.120096 0.882678 -0.219777
v 0.162838 1.301241 -0.294594
v 0.159902 1.301241 0.307167
v 0.205853 1.301241 -0.000899
v -0.079965 -0.569603 -0.173436
v -0.161172 0.960559 0.832359
v -0.161172 0.960559 -0.745556
v -0.079965 -0.569603 0.159421
v -0.103410 -0.569603 -0.010957
v -0.161172 1.195408 0.832359
v -0.161172 1.195408 -0.745556
v -0.120096 0.882678 -0.219777
v -0.120096 0.882678 0.230461
v -0.161172 1.301241 0.307167
v -0.158236 1.301241 -0.294594
v -0.197040 1.301241 -0.000899
v -0.038187 5.726102 -0.144788
v 0.005648 5.756247 -0.160102
v 0.047122 5.726102 0.231590
v 0.004074 5.744441 0.255892
v 0.004074 5.791357 0.038906
v -0.048592 5.726102 0.038906
v 0.047909 5.726102 -0.144788
v 0.056049 5.726102 0.039081
v -0.038974 5.726102 0.231590
vt 0.2550 0.3527
vt 0.2908 0.3502
vt 0.2908 0.6508
vt 0.2427 0.4377
vt 0.1133 0.4558
vt 0.1207 0.6776
vt 0.0590 0.6694
vt 0.0693 0.4517
vt 0.0371 0.3702
vt 0.0000 0.3736
vt 0.0046 0.0415
vt 0.0548 0.2847
vt 0.1838 0.2622
vt 0.1770 0.0114
vt 0.2363 0.0229
vt 0.2282 0.2707
vt 0.0894 0.7226
vt 0.1002 0.6831
vt 0.1572 0.7180
vt 0.1579 0.7502
vt 0.9789 0.3699
vt 0.9781 0.6696
vt 0.9577 0.6696
vt 0.9585 0.3699
vt 0.9775 0.1680
vt 0.9778 0.2240
vt 0.9574 0.2240
vt 0.9570 0.1680
vt 0.0682 0.7999
vt 0.0786 0.7621
vt 0.1587 0.7824
vt 0.1415 0.8101
vt 0.0971 0.2691
vt 0.0611 0.0208
vt 0.1177 0.0000
vt 0.1394 0.2536
vt 0.2000 0.4488
vt 0.2337 0.6656
vt 0.1795 0.6831
vt 0.1573 0.4599
vt 0.0025 0.7748
vt 0.0051 0.7434
vt 0.5793 0.8474
vt 0.5815 0.9050
vt 0.5613 0.9054
vt 0.5590 0.8477
vt 1.0000 0.3699
vt 0.9993 0.7004
vt 0.9789 0.7004
vt 0.9796 0.3699
vt 0.0189 0.7149
vt 0.0328 0.6864
vt 0.2954 0.6415
vt 0.2908 0.3095
vt 0.3110 0.3112
vt 0.3142 0.4238
vt 0.5245 0.0174
vt 0.5815 0.0323
vt 0.5652 0.2192
vt 0.5071 0.2043
vt 0.3498 0.0136
vt 0.3335 0.2006
vt 0.4115 0.0055
vt 0.4703 0.0000
vt 0.4490 0.1894
vt 0.3913 0.1950
vt 0.5793 0.7364
vt 0.5770 0.7897
vt 0.5567 0.7901
vt 0.5590 0.7368
vt 0.9774 0.0585
vt 0.9770 0.1145
vt 0.9566 0.1145
vt 0.9569 0.0585
vt 1.0000 1.0000
vt 0.9796 1.0000
vt 0.9789 1.0000
vt 0.9585 1.0000
vt 0.4186 0.8242
vt 0.2916 0.8507
vt 0.2909 0.7669
vt 0.4181 0.7623
vt 0.7087 0.8895
vt 0.5820 0.9068
vt 0.5815 0.8230
vt 0.7083 0.8276
vt 0.5458 0.7948
vt 0.4189 0.8088
vt 0.4186 0.7668
vt 0.5456 0.7638
vt 0.2897 0.8000
vt 0.1604 0.8060
vt 0.1587 0.7629
vt 0.2884 0.7681
vt 0.2897 0.7386
vt 0.1604 0.7230
vt 0.1621 0.6831
vt 0.2909 0.7091
vt 0.5820 0.7392
vt 0.7087 0.7657
vt 0.5458 0.7328
vt 0.4189 0.7250
vt 0.4192 0.6831
vt 0.5460 0.7019
vt 0.2916 0.6831
vt 0.4186 0.7003
vt 0.5106 0.3272
vt 0.5659 0.3317
vt 0.5459 0.4425
vt 0.4865 0.4539
vt 0.9566 0.3660
vt 0.9012 0.3638
vt 0.8873 0.0000
vt 0.9014 0.0029
vt 0.7084 0.3696
vt 0.5815 0.3699
vt 0.6461 0.0001
vt 0.7255 0.0000
vt 0.5815 0.3329
vt 0.5271 0.6602
vt 0.3519 0.6623
vt 0.3707 0.4446
vt 0.4678 0.6716
vt 0.4084 0.6831
vt 0.4272 0.4653
vt 0.3652 0.3155
vt 0.2909 0.8318
vt 0.1621 0.8491
vt 0.9778 0.0000
vt 0.9574 0.0000
vt 0.8414 0.7392
vt 0.7145 0.7388
vt 0.6975 0.3699
vt 0.7768 0.3700
vt 0.9006 0.7408
vt 0.8414 0.7411
vt 0.8848 0.3727
vt 0.9007 0.3699
vt 0.5460 0.8257
vt 0.4192 0.8507
vt 0.5815 0.6831
vt 0.5613 0.6834
vt 0.0000 0.8061
vt 0.0578 0.8378
vt 0.1243 0.8378
vt 0.7466 0.8287
vt 0.7278 0.8294
vt 0.7243 0.7392
vt 0.7403 0.7488
vt 0.7466 0.9053
vt 0.7315 0.9122
vt 0.7154 0.9064
vt 0.7087 0.8301
vt 0.7091 0.7499
vt 0.8414 0.3660
vt 0.8705 0.0029
vt 0.9577 0.7411
vt 0.9160 0.3727
vt 0.5815 0.7392
vt 0.6143 0.3700
vt 0.8414 0.3699
vt 0.8086 0.0001
vn -0.5249 -0.8481 -0.0718
vn 0.0248 -0.9893 -0.1438
vn 0.4862 -0.8703 0.0787
vn -0.0305 -0.9915 0.1262
vn 0.0000 -1.0000 0.0000
vn -0.9951 0.0000 -0.0991
vn -0.1513 0.0000 -0.9885
vn 0.0306 -0.9915 0.1263
vn -0.0261 -0.9893 -0.1436
vn 0.2352 0.0000 0.9719
vn 0.9934 0.0000 0.1149
vn 0.4921 -0.8663 -0.0860
vn -0.5197 -0.8518 0.0657
vn 0.8666 0.4881 0.1040
vn -0.0346 0.9730 -0.2283
vn 0.8742 0.4723 -0.1128
vn 0.0348 0.9735 -0.2260
vn -0.2352 0.0000 0.9719
vn 0.1513 0.0000 -0.9885
vn 0.9920 0.0000 -0.1266
vn -0.9959 0.0000 0.0899
vn -0.9592 -0.0567 0.2769
vn 0.9403 -0.0425 -0.3378
vn -0.1512 -0.0357 -0.9879
vn 0.2349 -0.0511 0.9707
vn -0.2349 -0.0540 0.9705
vn 0.9401 -0.0476 0.3377
vn 0.1512 -0.0339 -0.9879
vn -0.9594 -0.0525 -0.2770
vn 0.0000 1.0000 -0.0000
vn -0.2980 0.0221 0.9543
vn 0.9938 0.0320 -0.1065
vn -0.9182 0.3851 -0.0933
vn -0.9128 0.3993 0.0863
vn 0.0478 0.9792 0.1973
vn -0.0478 0.9792 0.1973
vn 0.1837 0.0000 -0.9830
vn 0.0390 0.9731 -0.2271
vn 0.0219 -0.9894 -0.1434
vn -0.9942 0.0324 -0.1025
vn -0.1935 0.0367 -0.9804
vn -0.0398 0.9733 -0.2260
vn -0.0222 -0.9892 -0.1448
vn -0.2003 0.0000 -0.9797
vn 0.6713 0.7346 0.0988
vn 0.7155 0.6945 -0.0759
vn -0.7073 0.7016 -0.0865
vn -0.6688 0.7367 0.1001
vn 0.2980 0.0215 0.9543
vn 0.2005 0.0366 -0.9790
vn -0.9954 0.0308 0.0904
vn 0.9936 0.0299 0.1089
usemtl Material
s off
f 33/1/1 14/2/1 4/3/1 27/4/1
f 50/5/2 42/6/2 8/7/2 28/8/2
f 32/9/3 16/10/3 6/11/3 29/12/3
f 62/13/4 55/14/4 2/15/4 26/16/4
f 46/17/5 15/18/5 5/19/5 43/20/5
f 4/21/6 14/22/6 18/23/6 19/24/6
f 56/25/7 4/26/7 19/27/7 60/28/7
f 58/29/5 17/30/5 11/31/5 57/32/5
f 49/33/8 45/34/8 12/35/8 30/36/8
f 61/37/9 56/38/9 10/39/9 31/40/9
f 54/41/5 9/42/5 17/30/5 58/29/5
f 45/43/10 6/44/10 23/45/10 48/46/10
f 6/47/11 16/48/11 22/49/11 23/50/11
f 44/51/5 7/52/5 15/18/5 46/17/5
f 28/8/12 8/7/12 16/10/12 32/9/12
f 26/16/13 2/15/13 14/2/13 33/1/13
f 23/53/14 22/54/14 38/55/14 39/56/14
f 60/57/15 19/58/15 35/59/15 64/60/15
f 22/54/16 21/61/16 37/62/16 38/55/16
f 47/63/17 20/64/17 36/65/17 51/66/17
f 55/67/18 12/68/18 24/69/18 59/70/18
f 42/71/19 10/72/19 20/73/19 47/74/19
f 16/48/20 8/75/20 21/76/20 22/49/20
f 14/22/21 2/77/21 25/78/21 18/23/21
f 1/79/22 26/80/22 33/81/22 13/82/22
f 7/83/23 28/84/23 32/85/23 15/86/23
f 54/87/24 61/88/24 31/89/24 9/90/24
f 43/91/25 49/92/25 30/93/25 11/94/25
f 57/95/26 62/96/26 26/97/26 1/98/26
f 15/86/27 32/85/27 29/99/27 5/100/27
f 44/101/28 50/102/28 28/103/28 7/104/28
f 13/82/29 33/81/29 27/105/29 3/106/29
f 65/107/30 34/108/30 41/109/30 63/110/30
f 63/111/31 40/112/31 69/113/31 74/114/31
f 53/115/32 51/116/32 72/117/32 73/118/32
f 64/60/30 35/59/30 34/108/30 65/107/30
f 19/58/33 18/119/33 34/108/33 35/59/33
f 18/119/34 25/120/34 41/109/34 34/108/34
f 48/121/35 23/53/35 39/56/35 52/122/35
f 59/123/36 24/124/36 40/125/36 63/110/36
f 24/124/35 48/121/35 52/122/35 40/125/35
f 37/62/30 51/66/30 53/126/30 38/55/30
f 38/55/30 53/126/30 52/122/30 39/56/30
f 9/90/28 31/89/28 50/102/28 44/101/28
f 5/127/25 29/128/25 49/92/25 43/91/25
f 8/129/37 42/71/37 47/74/37 21/130/37
f 21/61/38 47/63/38 51/66/38 37/62/38
f 9/42/5 44/51/5 46/17/5 17/30/5
f 12/68/10 45/43/10 48/46/10 24/69/10
f 29/12/8 6/11/8 45/34/8 49/33/8
f 17/30/5 46/17/5 43/20/5 11/31/5
f 31/40/39 10/39/39 42/6/39 50/5/39
f 25/120/36 59/123/36 63/110/36 41/109/36
f 64/131/40 65/132/40 71/133/40 66/134/40
f 36/135/41 64/136/41 66/137/41 67/138/41
f 11/94/26 30/93/26 62/96/26 57/95/26
f 3/139/24 27/140/24 61/88/24 54/87/24
f 2/141/18 55/67/18 59/70/18 25/142/18
f 20/64/42 60/57/42 64/60/42 36/65/42
f 3/143/5 54/41/5 58/29/5 13/144/5
f 27/4/43 4/3/43 56/38/43 61/37/43
f 13/144/5 58/29/5 57/32/5 1/145/5
f 10/72/44 56/25/44 60/28/44 20/73/44
f 30/36/4 12/35/4 55/14/4 62/13/4
f 73/146/45 70/147/45 69/148/45 68/149/45
f 72/150/46 67/151/46 70/147/46 73/146/46
f 67/151/47 66/152/47 71/153/47 70/147/47
f 70/147/48 71/153/48 74/154/48 69/148/48
f 40/112/49 52/155/49 68/156/49 69/113/49
f 51/157/50 36/135/50 67/138/50 72/158/50
f 65/132/51 63/159/51 74/160/51 71/133/51
f 52/161/52 53/115/52 73/118/52 68/162/52
