# Blender v2.78 (sub 0) OBJ File: 'skylt.blend'
# www.blender.org
mtllib skylt.mtl
o Cube.001
v -0.086295 -0.015485 0.264051
v -0.086295 3.288481 0.264051
v -0.086295 -0.015485 -0.264051
v -0.086295 3.186709 -0.264051
v 0.086295 -0.015485 0.264051
v 0.086295 3.288481 0.264051
v 0.086295 -0.015485 -0.264051
v 0.086295 3.186709 -0.264051
v -0.086295 -0.040109 0.000000
v -0.086295 3.237595 0.000000
v 0.086295 0.052931 0.000000
v 0.086295 3.237595 0.000000
v 0.069999 1.912529 1.235418
v 0.069999 2.867967 1.276968
v 0.069999 2.021286 -1.265397
v 0.069999 2.976722 -1.223846
v 0.259089 1.912529 1.235418
v 0.259089 2.867967 1.276968
v 0.259089 2.021286 -1.265397
v 0.259089 2.976722 -1.223846
vt 0.9990 0.2010
vt 0.8010 0.2010
vt 0.8010 0.3990
vt 0.9990 0.3990
vt 0.1990 0.8010
vt 0.0010 0.8010
vt 0.0010 0.9990
vt 0.1990 0.9990
vt 0.5990 0.6010
vt 0.4010 0.6010
vt 0.4010 0.7990
vt 0.5990 0.7990
vt 0.7990 0.2010
vt 0.6010 0.2010
vt 0.6010 0.3990
vt 0.7990 0.3990
vt 0.3990 0.4010
vt 0.2010 0.4010
vt 0.2010 0.5990
vt 0.3990 0.5990
vt 0.5990 0.4010
vt 0.4010 0.4010
vt 0.4010 0.5990
vt 0.5990 0.5990
vt 0.7990 0.0010
vt 0.6010 0.0010
vt 0.6010 0.1990
vt 0.7990 0.1990
vt 0.3990 0.8010
vt 0.2010 0.8010
vt 0.2010 0.9990
vt 0.3990 0.9990
vt 0.3990 0.6010
vt 0.2010 0.6010
vt 0.2010 0.7990
vt 0.3990 0.7990
vt 0.7990 0.4010
vt 0.6010 0.4010
vt 0.6010 0.5990
vt 0.7990 0.5990
vt 0.5990 0.0010
vt 0.4010 0.0010
vt 0.4010 0.3990
vt 0.5990 0.3990
vt 0.7990 0.6010
vt 0.6010 0.6010
vt 0.6010 0.7990
vt 0.7990 0.7990
vt 0.0010 0.2010
vt 0.0010 0.3990
vt 0.3990 0.3990
vt 0.3990 0.2010
vt 0.9990 0.0010
vt 0.8010 0.0010
vt 0.8010 0.1990
vt 0.9990 0.1990
vt 0.1990 0.4010
vt 0.0010 0.4010
vt 0.0010 0.7990
vt 0.1990 0.7990
vt 0.3990 0.1990
vt 0.3990 0.0010
vt 0.0010 0.0010
vt 0.0010 0.1990
vn -1.0000 0.0000 0.0000
vn 0.0000 0.0000 -1.0000
vn 1.0000 0.0000 0.0000
vn 0.0000 0.0000 1.0000
vn 0.2594 -0.9625 -0.0798
vn 0.0000 0.9819 -0.1892
vn 0.2594 -0.9625 0.0798
vn 0.0000 0.0434 -0.9991
vn 0.0000 -0.0434 0.9991
vn 0.0000 -0.9991 -0.0434
vn 0.0000 0.9991 0.0434
usemtl Material
s off
f 9/1/1 10/2/1 4/3/1 3/4/1
f 3/5/2 4/6/2 8/7/2 7/8/2
f 11/9/3 12/10/3 6/11/3 5/12/3
f 5/13/4 6/14/4 2/15/4 1/16/4
f 9/17/5 11/18/5 5/19/5 1/20/5
f 12/21/6 10/22/6 2/23/6 6/24/6
f 8/25/6 4/26/6 10/27/6 12/28/6
f 3/29/7 7/30/7 11/31/7 9/32/7
f 7/33/3 8/34/3 12/35/3 11/36/3
f 1/37/1 2/38/1 10/39/1 9/40/1
f 13/41/1 14/42/1 16/43/1 15/44/1
f 15/45/8 16/46/8 20/47/8 19/48/8
f 19/49/3 20/50/3 18/51/3 17/52/3
f 17/53/9 18/54/9 14/55/9 13/56/9
f 15/57/10 19/58/10 17/59/10 13/60/10
f 20/61/11 16/62/11 14/63/11 18/64/11
